<?xml version="1.0" encoding="utf-8"?>
<!-- Generator: Adobe Illustrator 24.0.0, SVG Export Plug-In . SVG Version: 6.00 Build 0)  -->
<svg version="1.1" xmlns="http://www.w3.org/2000/svg" x="0px" y="0px"
     viewBox="0 0 235 235" style="enable-background:new 0 0 1051.95 235;" xml:space="preserve">
<style type="text/css">
	.st0{fill:#DB4437;}
</style>
    <g>
	<path class="st0" d="M71.95,193.64c8.69-15.15,18.01-31.54,26.54-46.78c4.37-7.81,8.72-15.63,13.46-24.15
		c-69.62,41.95-69.62,41.95-69.62,41.95c-11.29,20.01-23.09,41.06-34.32,61.11c-1.63,2.91-3.19,5.87-5.01,9.23L71.95,193.64z"/>
        <path class="st0" d="M54.87,102.21"/>
        <path class="st0" d="M54.73,132.14"/>
        <path class="st0" d="M109.33,117.14"/>
        <path class="st0" d="M162.37,193.64c-8.67-15.15-17.97-31.54-26.48-46.78c-4.36-7.81-8.7-15.63-13.43-24.15
		c69.47,41.95,69.47,41.95,69.47,41.95c11.27,20.01,23.04,41.06,34.25,61.11c1.63,2.91,3.18,5.87,5,9.23L162.37,193.64z"/>
        <path class="st0" d="M162.37,41.36c-8.67,15.15-17.97,31.54-26.48,46.78c-4.36,7.81-8.7,15.63-13.43,24.15
		c69.47-41.95,69.47-41.95,69.47-41.95c11.27-20.01,23.04-41.06,34.25-61.11c1.63-2.91,3.18-5.87,5-9.23L162.37,41.36z"/>
        <path class="st0" d="M71.92,41.36c8.67,15.15,17.97,31.54,26.48,46.78c4.36,7.81,8.7,15.63,13.43,24.15
		C42.36,70.34,42.36,70.34,42.36,70.34C31.1,50.33,19.32,29.28,8.12,9.23C6.49,6.31,4.94,3.36,3.11,0L71.92,41.36z"/>
        <polygon class="st0" points="0,117.14 54.73,132.14 109.33,117.14 54.87,102.21 	"/>
        <polygon class="st0" points="235,117.11 180.27,132.11 125.67,117.11 180.13,102.18 	"/>
</g>
</svg>
